<svg xmlns="http://www.w3.org/2000/svg" width="1024" height="1024">
  <path d="M242.446 446.881S81.818 559.943 75.534 603.016l12.054-2.477S279.941 473.042 432.42 457.5l3.454-19.351zM494.6 430.724l-126.529 89.741 6.84 5.489c5.158-4.16 224.749-71.224 224.749-71.224l46.3-29.027c-31.066 3.867-151.36 5.021-151.36 5.021zm109.965 108.539c89.842 0 224.52-87.993 224.52-87.993l-43.536-8.287c-2.154 2.154-70.2-2.386-70.2-2.386l-32.3-8.971-77.179 87.938-6.281 15.258c5.544-2.248 4.976 4.441 4.976 4.441zm293.179 280.621l-27.755 7.816-128.239-2.773-80.223-62.385-96.961 24.258-112.146-9.7-62.8 68.623-117.839 35.2-58.838-18.242-2.963-2.551 26.41 64.665s59.818 64.132 93.231 71.675 93.766-.54 139.039-7.551 81.373-23.171 95.922-49.57 16.7-33.957 16.7-33.957 43.118 60.9 80.3 67.907 147.66-30.722 147.66-30.722 67.369-18.322 79.218-41.494 43.118-99.156 43.118-99.156zm-672.462 52.683l-1.863-.857c-4.419-3.815-8.033-6.931-10.392-8.962z" fill="#ca3248"/>
  <path d="M1006.684 361.778c-.277-3.463-.663-6.926-1.082-10.368a142.17 142.17 0 0 0-1.107-7.351 211.293 211.293 0 0 0-30.724-21.013 409.135 409.135 0 0 0-36.955-18.908c-12.586-5.937-25.508-11.312-38.513-16.554q-9.736-3.953-19.606-7.624c-6.549-2.555-13.165-4.937-19.8-7.351 13.921 2.305 27.7 5.467 41.374 8.985 8.9 2.3 17.744 4.877 26.531 7.624C864.282 125.818 714.8 19.4 551.6 19.4c-163.229 0-312.7 106.415-375.2 269.815 8.791-2.747 17.638-5.323 26.515-7.624 13.693-3.519 27.475-6.68 41.39-8.985-6.654 2.414-13.249 4.8-19.824 7.351q-9.81 3.658-19.605 7.624c-13 5.242-25.894 10.617-38.506 16.554a412.556 412.556 0 0 0-36.938 18.908 213.358 213.358 0 0 0-30.748 21.013 202.35 202.35 0 0 0-1.083 7.351c-.416 3.442-.8 6.905-1.083 10.368-.607 6.961-.854 13.951-.914 20.965a307.6 307.6 0 0 0 10.814 82.907c1.858 6.684 3.967 13.277 6.4 19.656a171.326 171.326 0 0 0 3.942 9.375 135.083 135.083 0 0 0 2.133 4.459l.889 1.695c1.026.523 2.105 1.052 3.132 1.551l6.214 2.968c3.463 1.575 8.259 3.849 12.226 5.628.223-.193.444-.389.637-.586l-11.539-43.943c2.446-.67 24.352-6.322 62.111-13.508a205.612 205.612 0 0 1-9.147-1.965 187.547 187.547 0 0 1-25.291-8.074 115.891 115.891 0 0 1-11.917-5.758 40.716 40.716 0 0 1-10.514-7.993c41.481 13.533 127.19 7.4 203.378-.47 69.683-7.179 139.525-11.838 209.728-11.975 70.211.137 140.079 4.8 209.729 11.975 76.223 7.873 161.931 14 203.406.47a40.62 40.62 0 0 1-10.507 7.993 115.9 115.9 0 0 1-11.916 5.758 188.1 188.1 0 0 1-25.29 8.074c-1.275.305-2.558.582-3.833.859 41.4 7.681 65.5 13.919 68.074 14.614l-11.035 41.866c2.221-1 4.461-1.969 6.658-2.965l6.205-2.968c1.032-.5 2.079-1.028 3.135-1.551l.856-1.695a87.215 87.215 0 0 0 2.163-4.459 160.607 160.607 0 0 0 3.942-9.375c2.44-6.379 4.553-12.972 6.407-19.656a302.44 302.44 0 0 0 8.233-41.041 306.232 306.232 0 0 0 2.584-41.866c-.064-7.012-.311-14.001-.927-20.962z" fill="#f3ecad"/>
  <path d="M598.657 942.889c-5.493.828-10.986 1.523-16.444 1.937-3.522.168-7.245.526-10.626.526l-1.249.028a2706.336 2706.336 0 0 0 9.9-22.4 752.82 752.82 0 0 0 18.419 19.909zm11.943 12.168c17.056 16.891 38.187 26.561 61.45 28.28a339.177 339.177 0 0 1-104.257 23.9c-28.275 1.895-56.944-1.439-85.037-9.144 2.356-.421 4.075-.723 6.156-.975 2.305-.281 52.685-6.849 75.393-40.616l2.13.049 5.575-.049c3.774 0 7.2-.309 10.81-.449a225.439 225.439 0 0 0 25.18-3.627 278.78 278.78 0 0 0 2.6 2.631z" fill="#e5cbac"/>
  <path d="M658.931 449.456a489.28 489.28 0 0 1-5.409 6.93 449.442 449.442 0 0 1-40.233 44.532q-28.617-.884-58.867-.916c-33.349 0-65.323.881-95.686 2.358 42.9-17.8 94.445-35.192 150.258-45.641 16.306-3.08 32.99-5.547 49.937-7.263zm-251.095 19.211a382.059 382.059 0 0 0-49.381 41.147c-42.952 4.3-80.414 9.509-111.327 14.5 47.525-21.845 101.759-41.949 160.708-55.647zM932.6 557.333l-17.468 122.229-83.688 58.616-218.265-24.813-32.854-108.2a7.138 7.138 0 0 0-5.719-5.011 115.2 115.2 0 0 0-42.446 0 7.2 7.2 0 0 0-5.711 5.011L494.4 710.726l-217.046 48.3-86.01-60.252-16.944-137.16q5.534-3.126 11.233-6.239 7.982-1.715 17.94-3.635l15.97 129.429a7.179 7.179 0 0 0 3.023 4.989l59.169 41.459a7.328 7.328 0 0 0 5.686 1.1l178.449-39.7a7.86 7.86 0 0 0 1.777-.638 7.192 7.192 0 0 0 3.521-4.267L503.3 578.3c8.619-2.218 30.7-7.375 50.1-7.375 19.354 0 41.45 5.158 50.078 7.375l32.132 105.809a7.2 7.2 0 0 0 6.072 5.046l178.45 20.273a7.258 7.258 0 0 0 4.914-1.249l59.2-41.424a7.252 7.252 0 0 0 2.959-4.884L903.014 551.3a1264.464 1264.464 0 0 1 29.586 6.033zm22.043-76.656l-15.361 58.278c-31.413-6.926-100.433-20.517-194.368-29.668 30.691-13.088 61.944-29.5 90.5-50.02 55.894 7.901 96.933 16.361 119.229 21.41z" fill="#656b67"/>
  <path d="M325.349 663.008c12.168-6.575 25.921-5.6 47.438-5.572 2.305.056 4.687.028 7.177-.028 2.114-.028 4.244-.056 6.491-.112 22.178-.217 40.618 1.888 40.292-32.94s-15.807-62.967-37.96-62.742c-22.18.189-43.639 28.722-42.313 63.521.36 9.067 1.693 15.607 3.831 20.323-19.329 4.848-24.655 16.799-24.956 17.55zM592 519.767a240.822 240.822 0 0 1-27.1 19.159l-31.471 19a269.734 269.734 0 0 0-37.843 7.572 6.243 6.243 0 0 0-1.635.723 7.263 7.263 0 0 0-3.246 4.1l-32.044 105.606-171.3 38.1-53.955-37.789-15.7-127.162c30.64-5.628 71.619-12.14 120.841-17.656-5.275 6.322-10.4 12.947-15.254 19.9l-29.3 42.062 42.671-28.449c.637-.442 27.806-18.322 72.258-40.06 44.3-3.326 93.187-5.467 145.5-5.467 12.755 0 25.267.144 37.578.361zm187.572 128.961c-.217-.828-4.881-14.828-25.508-12.372 2.381-5.179 3.438-12.161 2.691-21.733-2.724-34.743-22.933-62.357-45.088-61.585s-36.35 29.585-35.126 64.413c1.216 34.8 19.822 34.554 41.976 33.775 29.776-.555 46.137-9.705 61.055-2.498zM888.9 548.666l-15.445 108.11-54.4 38.09-171.075-19.437-31.915-105.114a7.267 7.267 0 0 0-4.881-4.821 263.268 263.268 0 0 0-44.7-8.295l4.1-.273c3.547-.253 62.555-7.488 133.009-31.78a1821.672 1821.672 0 0 1 185.307 23.52z" fill="#e4c9a1"/>
  <path d="M325.349 663.008c12.168-6.575 25.921-5.6 47.438-5.572 2.305.056 4.687.028 7.177-.028 2.114-.028 4.244-.056 6.491-.112 22.178-.217 40.618 1.888 40.292-32.94s-15.807-62.967-37.96-62.742c-22.18.189-43.639 28.722-42.313 63.521.36 9.067 1.693 15.607 3.831 20.323-19.329 4.848-24.655 16.799-24.956 17.55zM592 519.767a240.822 240.822 0 0 1-27.1 19.159l-31.471 19a269.734 269.734 0 0 0-37.843 7.572 6.243 6.243 0 0 0-1.635.723 7.263 7.263 0 0 0-3.246 4.1l-32.044 105.606-171.3 38.1-53.955-37.789-15.7-127.162c30.64-5.628 71.619-12.14 120.841-17.656-5.275 6.322-10.4 12.947-15.254 19.9l-29.3 42.062 42.671-28.449c.637-.442 27.806-18.322 72.258-40.06 44.3-3.326 93.187-5.467 145.5-5.467 12.755 0 25.267.144 37.578.361zm187.572 128.961c-.217-.828-4.881-14.828-25.508-12.372 2.381-5.179 3.438-12.161 2.691-21.733-2.724-34.743-22.933-62.357-45.088-61.585s-36.35 29.585-35.126 64.413c1.216 34.8 19.822 34.554 41.976 33.775 29.776-.555 46.137-9.705 61.055-2.498zM888.9 548.666l-15.445 108.11-54.4 38.09-171.075-19.437-31.915-105.114a7.267 7.267 0 0 0-4.881-4.821 263.268 263.268 0 0 0-44.7-8.295l4.1-.273c3.547-.253 62.555-7.488 133.009-31.78a1821.672 1821.672 0 0 1 185.307 23.52z" fill="#c6b298"/>
  <path d="M963.575 596.216c2.625 2.161 4.7 7.761 2.356 33.852-2.884 31.943-16.31 88-24.628 97.044-9.176 1.775-28.419-.33-40.15-3.074 2.028-8.049 2.607-11.9 4.242-20.133l20.52-14.358a7.18 7.18 0 0 0 2.993-4.856l14.339-100.481c8.705 4.715 17.661 9.81 20.328 12.006zM207.116 727.364a425.138 425.138 0 0 0 3.221 10.842c-11.04 3.242-33.526 6.351-43.7 4.576-8.431-8.491-24.154-66.932-27.592-97.963-2.8-25.143-.835-30.582 1.719-32.694 2.968-2.491 14.082-8.814 23.71-13.972l13 105.555a7.048 7.048 0 0 0 3.026 4.992zm415.079 1.474l-.781 6.737S597.767 757.5 559.7 762.409s-67.99-18.491-67.99-18.491c1.249 4.07 3.026 13.249 11.647 21.094a274.369 274.369 0 0 0-32.585-2.028c-4.151 0-8.343.119-12.394.316-23.429 1.221-56.392 36.652-79.568 72.342-11.372 3.6-46.918 14.884-88.063 27.031-38.4-53.213-57.29-107.583-59.2-113.211l.028-.028c-.775-2.161-1.554-4.329-2.275-6.547l9.877 6.905v.028l24.4 17.08 8.156 5.684a7.093 7.093 0 0 0 4.1 1.305 7.961 7.961 0 0 0 1.575-.161l224.209-49.915a7.154 7.154 0 0 0 5.291-4.905l31.973-105.254a93.4 93.4 0 0 1 29.055 0l32.9 108.383a7.157 7.157 0 0 0 6.047 5.046z" fill="#e5cbac"/>
  <path d="M878.119 723.013l7.237-5.08c-1.2 5.024-2.5 10.014-3.858 14.947a516.952 516.952 0 0 1-35.127 85.977c-2.917.2-5.995.316-9.291.316-10.18 0-20.577-.863-32.082-1.916-19.966-1.832-51.655-5.459-61.667-6.624-8.621-6.877-38.12-30.315-62.665-49.634-.963-.779-1.795-1.5-2.607-2.168-4.319-3.656-9.233-7.81-19.186-7.81-9.04 0-22.24 3.291-54.146 12.947 16.579-12.393 16.688-28.393 16.688-28.393l.781-6.737 210.339 23.894a7.278 7.278 0 0 0 4.932-1.242l21.133-14.807z" fill="#e5cbac"/>
  <path d="M723.313 280.485c.638 18.712.169 52.623-8.544 84.37a6.85 6.85 0 0 0 0 3.635c-11.086-1.165-22.18-2.161-33.273-3.053 12.452-26.091 15.168-53.873 15.756-63.658a292.878 292.878 0 0 0 26.061-21.294zM405.95 301.779c.579 9.786 3.295 37.511 15.723 63.581q-16.642 1.326-33.248 3.077a6.832 6.832 0 0 0 0-3.582c-8.7-31.687-9.149-65.627-8.537-84.37a288.426 288.426 0 0 0 26.062 21.294z" fill="#ead498"/>
  <path d="M779.572 648.728c-14.917-7.207-31.278 1.944-61.055 2.5-22.154.779-40.76 1.024-41.976-33.775-1.224-34.827 12.972-63.627 35.126-64.413s42.364 26.841 45.088 61.585c.747 9.571-.31 16.554-2.691 21.733 20.627-2.458 25.29 11.542 25.508 12.37zm-69.625-50.989a11.328 11.328 0 1 0-11.53-11.123 11.37 11.37 0 0 0 11.53 11.123z" fill="#2c3035"/>
  <path d="M721.066 586.2a11.326 11.326 0 1 1-11.538-11.115 11.37 11.37 0 0 1 11.538 11.115z" fill="#ecf5f9"/>
  <path d="M426.746 624.356c.326 34.827-18.114 32.722-40.292 32.94-2.247.056-4.377.084-6.491.112-2.49.056-4.872.084-7.177.028-21.517-.028-35.269-1-47.438 5.572.3-.751 5.628-12.7 24.956-17.551-2.138-4.716-3.472-11.256-3.831-20.323-1.326-34.8 20.133-63.332 42.313-63.521 22.154-.224 37.625 27.923 37.96 62.743zM392.5 606.139a11.33 11.33 0 1 0-11.647-11.039 11.33 11.33 0 0 0 11.647 11.039z" fill="#2c3035"/>
  <path d="M403.51 594.518a11.332 11.332 0 1 1-11.61-11.031 11.33 11.33 0 0 1 11.61 11.031z" fill="#ecf5f9"/>
  <path d="M257.471 387.949s3.442-44.866 10.477-62.062c3.626-8.863 25.791-14.5 42.72-18.536s43.92-12.088 49.162 11.687 13.693 41.1 19.336 48.76l-7.245-97.924-116.462 28.207-7.659 86.647 3.628 6.852 6.045-3.631m589.308 0s-3.437-44.866-10.474-62.062c-3.63-8.863-25.792-14.5-42.715-18.536s-43.93-12.088-49.172 11.687-13.7 41.1-19.345 48.76l7.261-97.924L848.8 298.081l7.656 86.647-3.63 6.852-6.047-3.631" opacity=".8" fill="#ead498"/>
  <path d="M682.167 94.868s-3.086 234.816-57.936 234.816h-142.61c-54.85 0-59.285-234.714-59.285-234.714l-26.943 79.689.436 109.341 19.135 15.214 8.7 46.953 12.167 27.392L670.6 374l10.866-19.568 9.131-33.038 1.309-20.87 25.932-74.024zm172.74 218.946s11.287 81 41.164 95.609l-41.827-12.614zm-606.643 0s-11.287 81-41.166 95.609l41.833-12.614z" fill="#ead498" opacity=".75"/>
  <path d="M862.949 396.44c14.222 4.656 28.527 9.593 41.483 17.161a164.226 164.226 0 0 0-21.3-6.488c-7.179-1.832-14.415-3.382-21.685-4.768-14.556-2.744-29.164-5.07-43.864-6.849q-22-2.868-44.115-4.772c-14.751-1.246-29.468-2.491-44.252-3.354-59.083-3.632-118.334-4.544-177.621-4.6-59.276.032-118.527 1.14-177.62 4.632-14.775.859-29.5 2.109-44.25 3.358s-29.473 2.828-44.113 4.765c-14.7 1.779-29.308 4.109-43.864 6.849q-10.895 2.042-21.71 4.744a165.6 165.6 0 0 0-21.3 6.488c12.952-7.568 27.258-12.53 41.508-17.193 1.2-.386 2.412-.719 3.631-1.105-.079-.305-.163-.582-.223-.916-.247-1.635-5.517-40.567 3.661-96.243a6.9 6.9 0 0 1 4.965-5.547l15.056-4.291c3.27-116.79 51.374-171.719 52.876-173.41-42.978 69.153-42.587 151.172-41.841 170.273l93.579-26.592c.084-.024.135-.024.219-.053a8 8 0 0 1 1.165-.165c.109 0 .253-.031.386-.031a6.18 6.18 0 0 1 1.535.14 1.78 1.78 0 0 1 .276.084 6.57 6.57 0 0 1 1.158.386c.168.084.277.169.444.253a9.453 9.453 0 0 1 .914.579 1.11 1.11 0 0 1 .253.169c.058.056.109.112.167.165.084.084.193.14.277.225.06.084 2.549 2.547 6.516 6.238-.938-30.834.528-119.285 42.648-192.592-.889 2.572-34.3 100.289-22.79 209.809 3.738 3 7.672 5.933 11.5 8.512a6.954 6.954 0 0 1 3.018 5.628c.033.361.83 35.269 16.252 64.967a9.208 9.208 0 0 1 .528 1.386c38.346-2.607 76.8-3.659 115.173-3.687 38.382.028 76.812 1.137 115.15 3.772a7.4 7.4 0 0 1 .561-1.47c15.412-29.7 16.217-64.605 16.217-64.967a7.033 7.033 0 0 1 3.053-5.628c3.824-2.579 7.707-5.516 11.48-8.512 11.53-109.52-21.887-207.237-22.768-209.809 42.087 73.307 43.588 161.758 42.65 192.592 3.931-3.691 6.431-6.154 6.507-6.238s.2-.14.276-.225a2.183 2.183 0 0 1 .169-.165 1.375 1.375 0 0 1 .251-.169c.31-.217.612-.41.914-.61a2.618 2.618 0 0 0 .419-.221 9.831 9.831 0 0 1 1.216-.414c.084 0 .168-.056.253-.056a5.907 5.907 0 0 1 1.526-.14c.142 0 .251.031.36.031a8.218 8.218 0 0 1 1.191.165 2.207 2.207 0 0 0 .218.053l93.582 26.592c.755-19.1 1.14-101.121-41.834-170.273 1.491 1.691 49.6 56.619 52.844 173.41l15.086 4.291a6.956 6.956 0 0 1 4.965 5.547c9.173 55.676 3.882 94.608 3.656 96.243a7.827 7.827 0 0 1-.219.94c1.221.355 2.412.713 3.637 1.106zm-17.022-5c.721-6.232 4.075-40.312-3.053-86.728L736.948 274.6c.949 17.94 1.369 56.844-8.812 93.942a9.013 9.013 0 0 1-.52 1.333c1.048.109 2.1.193 3.127.33a882.22 882.22 0 0 1 88.728 14.61c8.845 2.057 17.692 4.25 26.455 6.629zM714.77 364.855c8.712-31.747 9.182-65.658 8.544-84.37a292.878 292.878 0 0 1-26.061 21.294c-.588 9.786-3.3 37.568-15.756 63.658 11.093.891 22.187 1.888 33.273 3.053a6.85 6.85 0 0 1 0-3.635zm-293.1.505c-12.428-26.07-15.143-53.8-15.723-63.581a288.426 288.426 0 0 1-26.063-21.294c-.612 18.743-.167 52.683 8.537 84.37a6.832 6.832 0 0 1 0 3.582q16.606-1.752 33.252-3.077zm-46.111 4.46a8.217 8.217 0 0 1-.5-1.274c-10.2-37.1-9.753-76-8.839-93.942l-105.894 30.112c-7.123 46.364-3.8 80.44-3.081 86.7q13.186-3.579 26.485-6.628c14.637-3.242 29.387-5.958 44.168-8.456 14.808-2.467 29.668-4.351 44.527-6.154 1.056-.137 2.081-.215 3.137-.358z" fill="#2c3035"/>
  <path d="M663.217 97.962v87.885h-62.3v-25.675h-14.035V278.8h21.209v66.33H499.126V278.8h21.123V160.172h-14v25.674H444V97.962zM644.5 167.171v-50.533H462.675v50.533h24.858V141.5h51.434v156.02H517.8v28.937h71.57v-28.94h-21.164V141.5h51.434v25.674z" fill="#2c3035"/>
  <path fill="#ca3248" d="M644.498 116.638v50.533H619.64v-25.675h-51.434v156.021h21.166v28.937h-71.57v-28.937h21.166V141.496h-51.435v25.675h-24.858v-50.533h181.823z"/>
  <path d="M154.246 480.677c9.082-2.059 21.35-4.68 36.4-7.589a539.172 539.172 0 0 0-32.12 23.729z" fill="#656b67"/>
  <path d="M486.761 721.54s2.541 16.337-20.326 23.326-167.673 50.153-184.189 47.816-58.43-30.322-58.43-30.322l-10.163-36.154 62.027 38.673zm129.73-3.165s-1.828 16.425 21.324 22.425 169.7 42.82 186.091 39.768 57.055-32.834 57.055-32.834l8.586-36.567-57.013 34.006z" fill="#c6b298"/>
  <path d="M142.465 691.477s20.066 40.132 52.476 26.238l23.152 8.491-2.314 16.982-48.62 6.168-13.119-7.712zm821.469-11.017s-32.8 41.887-65.206 28l-10.422 6.722 2.314 16.975 48.62 6.175 13.114-7.719zM456.656 995.765s118.882 59.935 253.484-21.62l-43.227-2.945s-94.319 37.332-168.991 16.7z" fill="#c6b298"/>
  <path d="M577.173 885.326l8.226 9.8c.184.239 18.465 21.993 40.811 44.146 14.86 14.729 32.813 22.182 53.39 22.182a93.737 93.737 0 0 0 21.861-2.7c6.919-1.684 14.431-3.474 22.129-5.319 27.791-6.645 59.269-14.189 74.53-18.462 3.019-.856 6.389-1.628 9.937-2.435 20.31-4.694 48.159-11.165 62.907-40.722 11.095-22.182 26.054-50.967 37.148-72.069-9.617 4.435-19.7 9.242-26.859 13.01-11.035 5.8-25.491 8.6-44.174 8.6-11.11 0-22.021-.933-34.1-2.007-24.133-2.218-64.97-7.024-65.388-7.081l-3.128-.344-2.463-1.974c-.369-.267-36.149-28.778-65.071-51.521q-1.76-1.442-3.2-2.646c-3.044-2.6-3.044-2.6-4.863-2.6-9.275 0-36.234 8.365-95.3 26.673l-3.63 1.151-3.556-1.34c-.4-.133-39.152-14.5-85.591-14.5-3.8 0-7.587.1-11.278.287-4.652.239-30.757 12.638-64.139 65.451l-2.165 3.389-3.823 1.228c-.554.189-58.011 18.736-118.941 36.16l-3.954 1.123-3.744-1.74c-.4-.162-24.238-11.221-46.925-21.649 12.373 18.28 28.2 41.08 42.117 58.96C282.25 959.7 312.9 988.635 371.67 988.635a207.5 207.5 0 0 0 23.245-1.368c59.779-6.758 75.176-9.481 83.459-10.926 2.8-.477 5.023-.884 7.858-1.228.452-.056 49.406-6.386 63.142-37.2 14.163-31.662 17.022-39.206 17.131-39.494l5-13.333s.619-3.453 1.635-4.526c0 .028 0 .028.025.028l.1.084c1.576 1.128 3.908 4.654 3.908 4.654zM204.86 287.573c-12.989 5.235-25.894 10.635-38.51 16.565-12.642 5.775-25.068 11.975-36.934 18.894a211.98 211.98 0 0 0-30.733 21.038c-.4 2.347-.77 4.912-1.089 7.344-.4 3.445-.805 6.894-1.074 10.368-.612 6.947-.854 13.951-.93 20.951a308.412 308.412 0 0 0 2.589 41.876 304.848 304.848 0 0 0 8.226 41.048c1.875 6.684 3.96 13.284 6.416 19.638 1.2 3.214 2.54 6.336 3.933 9.386a135.083 135.083 0 0 0 2.133 4.459l.886 1.684c1.039.537 2.109 1.067 3.123 1.551l6.226 2.965c3.475 1.607 8.259 3.877 12.214 5.642a7.348 7.348 0 0 0 .64-.59l-11.516-43.936c2.433-.667 24.348-6.333 62.107-13.519a175.899 175.899 0 0 1-9.165-1.954 189.808 189.808 0 0 1-25.282-8.067 117.888 117.888 0 0 1-11.917-5.775 40.555 40.555 0 0 1-10.507-7.986c41.474 13.547 127.178 7.4 203.371-.456 69.691-7.193 139.518-11.838 209.72-12 70.2.161 140.088 4.807 209.728 12 76.241 7.856 161.949 14 203.415.456a40.458 40.458 0 0 1-10.5 7.986 118.261 118.261 0 0 1-11.917 5.775 190.547 190.547 0 0 1-25.307 8.067c-1.258.291-2.54.589-3.824.856 41.4 7.67 65.5 13.922 68.065 14.617L967.415 508.3c2.221-.989 4.461-1.944 6.649-2.965l6.232-2.965a110.269 110.269 0 0 0 3.126-1.551l.856-1.684a104.18 104.18 0 0 0 2.163-4.459 162.828 162.828 0 0 0 3.958-9.386c2.432-6.354 4.537-12.954 6.382-19.638a299.488 299.488 0 0 0 8.233-41.048 305.091 305.091 0 0 0 2.593-41.876c-.051-7-.319-14-.907-20.951-.293-3.474-.67-6.923-1.1-10.368-.293-2.432-.7-5-1.1-7.344a211.49 211.49 0 0 0-30.733-21.038 414.681 414.681 0 0 0-36.955-18.894c-12.586-5.93-25.517-11.33-38.506-16.565-6.5-2.621-13.047-5.189-19.62-7.621-6.542-2.537-13.173-4.937-19.8-7.344 13.919 2.3 27.713 5.473 41.364 8.975 8.9 2.3 17.778 4.895 26.54 7.645C864.282 125.811 714.794 19.4 551.6 19.4c-163.233 0-312.695 106.411-375.2 269.829 8.788-2.751 17.635-5.344 26.506-7.645 13.684-3.5 27.47-6.677 41.4-8.975-6.659 2.407-13.258 4.807-19.833 7.344-6.548 2.43-13.092 4.999-19.613 7.62zm822.971 94.549a278 278 0 0 1-1.333 45.08 286.319 286.319 0 0 1-8.36 44.417c-2.063 7.3-4.437 14.508-7.245 21.67a193.658 193.658 0 0 1-4.595 10.691 91.904 91.904 0 0 1-2.7 5.291l-1.468 2.645a46.677 46.677 0 0 1-1.795 2.965l-1.517 2.358-2.381 1.221c-2.542 1.312-4.621 2.3-6.926 3.372l-6.7 3.021a462.857 462.857 0 0 1-13.526 5.5 325.05 325.05 0 0 0-8.579 3.48l-7.454 28.322c-.184-.049-2.431-.617-6.624-1.628l-.4 2.961c8.226 4.3 24.394 13.017 29.9 17.565 11.086 9.165 11.867 23.677 9.409 50.8-1.258 13.922-5.879 41.017-12.293 65.9-11.07 42.834-16.947 47.865-24.536 49.809a66.6 66.6 0 0 1-15.53 1.979c-11.7 0-27.631.323-38.346-2.266a410.2 410.2 0 0 1-26.163 66.911c.779-.379 1.551-.695 2.247-1.066 19.186-10.077 56.065-26.14 57.616-26.835l29.131-12.659-14.917 28.056c-.344.61-32.334 60.77-51.923 100.054-19.454 38.911-55.93 47.381-77.767 52.4-3.288.779-6.407 1.5-8.947 2.2-15.665 4.407-47.387 11.972-75.36 18.7a9.627 9.627 0 0 1-1.016.218 330.469 330.469 0 0 1-56.552 27.929c-75.2 28.483-154.46 26.884-226.323.477-11.672 1.5-27.017 3.34-47.453 5.663a233.318 233.318 0 0 1-25.735 1.5c-68.468 0-104.757-34.771-131.243-68.812-28.356-36.455-63.037-90.573-64.509-92.84l-20.1-31.375 33.991 15.284c16.272 7.326 64.648 29.719 78.488 36.133 1.119-.316 2.218-.639 3.312-.961A416.268 416.268 0 0 1 216.4 756.571a165.485 165.485 0 0 1-42.361 6.063 58.215 58.215 0 0 1-12.821-1.179c-7.593-1.734-16.251-9.053-28.036-50.56-6.838-24.1-11.945-50.4-13.438-63.942-2.944-26.434-2.407-40.6 8.579-49.739 6.625-5.53 28.962-17.263 33.587-19.663l-.989-8.154c-70.974 41.71-113.513 78.566-114.369 79.316L-4.2 693.26l36.157-57.023c28.62-45.192 61.676-81.724 92.089-109.866-1.258-.506-2.432-1.014-3.665-1.519l-6.707-3.021c-2.3-1.074-4.383-2.059-6.919-3.372l-2.381-1.221-1.523-2.358c-.854-1.284-1.228-2-1.79-2.965l-1.5-2.645c-.935-1.789-1.846-3.53-2.672-5.291a159.174 159.174 0 0 1-4.595-10.691c-2.809-7.161-5.186-14.372-7.245-21.67a288.793 288.793 0 0 1-9.7-89.5q.6-11.268 2.163-22.476c.537-3.74 1.1-7.484 1.846-11.2.775-3.789 1.526-7.319 2.673-11.463l.8-2.909 2.084-1.635c11.84-9.3 24.61-16.326 37.6-22.55 10.692-5.024 21.592-9.463 32.578-13.5 30.678-85.135 83.426-160.631 152.749-213.248C379.528 28.754 463.81 0 551.6 0s172.07 28.754 243.74 83.139c69.323 52.616 122.076 128.113 152.733 213.223 11.01 4.063 21.885 8.47 32.6 13.526 12.98 6.225 25.759 13.249 37.592 22.55l2.087 1.635.805 2.909c1.174 4.144 1.919 7.673 2.667 11.463.755 3.716 1.341 7.46 1.844 11.2 1.049 7.455 1.794 14.964 2.163 22.476zm-61.918 247.932c2.356-26.077.3-31.69-2.348-33.831-2.649-2.218-11.6-7.291-20.31-12.021l-14.346 100.476a7.178 7.178 0 0 1-2.993 4.863L905.388 703.9c-1.628 8.225-2.214 12.105-4.22 20.147 11.732 2.723 30.968 4.842 40.134 3.074 8.318-9.034 21.752-65.102 24.611-97.067zm-26.64-91.1l15.37-58.278c-22.289-5.049-63.335-13.5-119.241-21.41-28.543 20.526-59.788 36.932-90.488 50.027 93.935 9.141 162.955 22.742 194.359 29.661zm-24.159 140.6l17.475-122.214a1245.532 1245.532 0 0 0-29.584-6.035l-15.789 110.58a7.314 7.314 0 0 1-2.968 4.87l-59.218 41.417a7.187 7.187 0 0 1-4.889 1.256l-178.459-20.28a7.18 7.18 0 0 1-6.072-5.025L603.469 578.3c-8.612-2.225-30.706-7.382-50.051-7.382-19.429 0-41.508 5.158-50.113 7.382l-32.149 105.823a7.173 7.173 0 0 1-3.523 4.246 6.842 6.842 0 0 1-1.768.645l-178.457 39.7a7.7 7.7 0 0 1-1.577.169 7.011 7.011 0 0 1-4.088-1.291l-59.193-41.444a7.208 7.208 0 0 1-3.017-5l-15.955-129.415a1260.276 1260.276 0 0 0-17.961 3.628q-5.687 3.137-11.221 6.26l16.938 137.141 86.028 60.266 217.046-48.288 32.041-105.555a7.166 7.166 0 0 1 5.719-5.031 115.155 115.155 0 0 1 42.438 0 7.1 7.1 0 0 1 5.719 5.031l32.862 108.173 218.257 24.82zm-41.659-22.771L888.9 548.652a1822.893 1822.893 0 0 0-185.3-23.51c-70.446 24.3-129.446 31.531-133 31.77l-4.116.295a261.27 261.27 0 0 1 44.7 8.287 7.244 7.244 0 0 1 4.872 4.814l31.931 105.127 171.055 19.431zm11.891 61.143L878.1 723l-19.5 13.684-21.14 14.807a7.33 7.33 0 0 1-4.923 1.256L622.2 728.831l-15.312-1.74a7.166 7.166 0 0 1-6.045-5.046l-32.92-108.391a93.94 93.94 0 0 0-29.049 0l-31.963 105.261a7.142 7.142 0 0 1-5.291 4.884l-224.209 49.929a8.144 8.144 0 0 1-1.575.154 7.08 7.08 0 0 1-4.117-1.3l-8.147-5.67-24.4-17.073v-.056l-9.861-6.891c.7 2.218 1.493 4.386 2.274 6.547l-.03.028c1.9 5.635 20.791 59.991 59.193 113.2 41.124-12.133 76.694-23.41 88.049-27.017 23.168-35.7 56.148-71.114 79.586-72.342a266.72 266.72 0 0 1 12.4-.316 277.419 277.419 0 0 1 32.57 2.028c-8.628-7.831-10.389-17.024-11.647-21.087 0 0 29.9 23.382 67.981 18.5 38.087-4.919 61.734-26.863 61.734-26.863s-.109 16.014-16.7 28.407c31.913-9.649 45.113-12.961 54.144-12.961 9.97 0 14.884 4.168 19.186 7.839.83.666 1.66 1.383 2.616 2.161 24.536 19.319 54.035 42.757 62.674 49.627 9.995 1.172 41.683 4.779 61.65 6.624 11.514 1.039 21.91 1.923 32.091 1.923 3.288 0 6.364-.133 9.275-.323a516.921 516.921 0 0 0 35.143-85.973c1.355-4.947 2.673-9.943 3.846-14.968zM807.739 451.6a.307.307 0 0 0-.16-.06c-16.889-1.252-33.777-2.4-50.723-3.361q-35.27-2.011-70.547-3.449c-1.367 2.031-4.142 6.039-8.126 11.488-12.8 17.319-38.187 49.09-70.739 76.032 46.078-8.258 126-28.7 195.138-76.937 1.735-1.229 3.447-2.513 5.157-3.713zm-154.217 4.779a351.066 351.066 0 0 0 5.391-6.919 578.337 578.337 0 0 0-49.918 7.267c-55.821 10.449-107.375 27.82-150.267 45.617 30.389-1.47 62.346-2.351 95.7-2.351 20.175 0 39.789.347 58.865.909a447.489 447.489 0 0 0 40.229-44.519zm18.515 526.962c-23.245-1.712-44.385-11.382-61.441-28.273-.881-.905-1.735-1.768-2.591-2.645a229.368 229.368 0 0 1-25.2 3.635c-3.605.133-7.028.449-10.793.449l-5.593.056-2.13-.056C541.6 990.263 491.2 996.839 488.9 997.134c-2.081.239-3.791.533-6.147.961 28.093 7.7 56.762 11.038 85.037 9.137a339.341 339.341 0 0 0 104.247-23.887zm-89.817-38.508c5.451-.428 10.926-1.123 16.436-1.951a715.642 715.642 0 0 1-18.415-19.908 2127.883 2127.883 0 0 1-9.91 22.4h1.256c3.389-.001 7.103-.374 10.633-.541zM564.9 538.934a244.447 244.447 0 0 0 27.1-19.163c-12.319-.211-24.822-.372-37.568-.372-52.325 0-101.2 2.14-145.512 5.477-44.443 21.727-71.621 39.6-72.258 40.057L293.981 593.4l29.313-42.062c4.838-6.982 9.97-13.607 15.261-19.908-49.223 5.5-90.216 12.021-120.839 17.663L233.4 676.236l53.957 37.789 171.3-38.083 32.066-105.633a7.184 7.184 0 0 1 3.237-4.091 5.877 5.877 0 0 1 1.626-.723 273.736 273.736 0 0 1 37.869-7.564zm19.7-96.982q-17.887-.279-35.789-.319h-.026q-26.249.037-52.594.562l-32.356 15.335c-.025.025-.211.109-.453.246-4.865 2.375-47.353 23.81-87.335 62.051 35.84-18.842 88.509-43.452 150.486-62.536 18.567-5.691 38.019-10.929 58.067-15.339zM358.437 509.8a383.436 383.436 0 0 1 49.383-41.125c-58.925 13.684-113.167 33.774-160.684 55.634 30.921-4.994 68.359-10.201 111.301-14.509zm11.146-51.36q29.62-8.3 60.979-14.431-44.894 1.642-89.784 4.172-26.063 1.437-51.953 3.445c-8.659.667-17.266 1.358-25.845 2.3-2.456.239-4.863.505-7.321.828-22.552 13.494-109.056 67.8-168.438 138.8 57.7-40.109 158.233-100.372 282.362-135.112zM210.337 738.206a338.102 338.102 0 0 1-3.2-10.849l-26.645-18.645a7.189 7.189 0 0 1-3.023-5L164.48 598.153c-9.623 5.158-20.736 11.487-23.7 13.972-2.563 2.112-4.516 7.536-1.737 32.687 3.447 31.024 19.161 89.472 27.6 97.97 10.157 1.789 32.657-1.334 43.694-4.576zm-19.694-265.118c-15.047 2.909-27.315 5.53-36.4 7.589l4.277 16.14a539.879 539.879 0 0 1 32.123-23.729z" fill="#2c3035"/>
</svg>
